# xmcd
#
# Track frame offsets:
#	150
#	16305
#	37602
#	52583
#	70001
#	89152
#	109497
#	129544
#	141634
#	160687
#	174864
#	189882
#	202244
#	214954
#	226203
#	241956
#	255828
#	268876
#
# Disc length: 3707 seconds
#
# Revision: 1
# Processed by: cddbd v1.5.2PL0 Copyright (c) Steve Scherf et al.
# Submitted via: audiograbber 1.83.01
#
DISCID=f70e7912
DTITLE=Various Artist - RoadTrippin' - [CD2]
DYEAR=2007
DGENRE=Crossover
TTITLE0=The Proclaimers - I'm Gonna Be (500 miles)
TTITLE1=Lynyrd Skynyrd - Sweet Home Alabama
TTITLE2=Kiss - Mr. Speed
TTITLE3=Poison - Ride The Wind
TTITLE4=Coldplay - High Speed
TTITLE5=Steve Earle - Copperhead Road
TTITLE6=Soul Asylum - Runaway Train
TTITLE7=The Spencer Davis Group - Keep On Running
TTITLE8=Status Quo - Don't Drive My Car
TTITLE9=Lisa Loeb - Too Fast Driving
TTITLE10=Free - Travelling Man
TTITLE11=Chuck Berry - No Particular Place to Go
TTITLE12=Jr. Walker and The All Stars - (I'm a) Road Runner
TTITLE13=Roger Miller - King Of The Road
TTITLE14=Brad Paisley - Mud On The Tires
TTITLE15=Muddy Waters - Lonesome Road Blues
TTITLE16=Jimmy Rogers - Out On The Road
TTITLE17=Rick Brake - Road
EXTD=
EXTT0=
EXTT1=
EXTT2=
EXTT3=
EXTT4=
EXTT5=
EXTT6=
EXTT7=
EXTT8=
EXTT9=
EXTT10=
EXTT11=
EXTT12=
EXTT13=
EXTT14=
EXTT15=
EXTT16=
EXTT17=
PLAYORDER=
